<svg width="360" height="45" viewBox="0 0 360 45" fill="none" xmlns="http://www.w3.org/2000/svg">
<path d="M221.98 44.9988C220.604 44.9988 219.359 44.7655 218.246 44.2987C217.153 43.832 216.285 43.1599 215.644 42.2825C215.003 41.4051 214.673 40.3689 214.654 39.1741H218.897C218.954 39.9769 219.236 40.6116 219.746 41.0784C220.274 41.5451 220.99 41.7784 221.895 41.7784C222.82 41.7784 223.546 41.5638 224.074 41.1344C224.602 40.6863 224.866 40.1076 224.866 39.3982C224.866 38.8194 224.687 38.3434 224.328 37.97C223.97 37.5966 223.517 37.3073 222.97 37.1019C222.442 36.8779 221.707 36.6352 220.764 36.3738C219.482 36.0004 218.435 35.6364 217.624 35.2817C216.832 34.9083 216.144 34.3576 215.559 33.6295C214.993 32.8827 214.71 31.8933 214.71 30.6612C214.71 29.5037 215.003 28.4956 215.587 27.6368C216.172 26.778 216.992 26.1246 218.048 25.6766C219.104 25.2099 220.311 24.9765 221.669 24.9765C223.706 24.9765 225.356 25.4712 226.62 26.4607C227.902 27.4314 228.609 28.7943 228.741 30.5491H224.385C224.347 29.8771 224.055 29.3263 223.508 28.897C222.98 28.4489 222.273 28.2249 221.386 28.2249C220.613 28.2249 219.991 28.4209 219.519 28.8129C219.067 29.205 218.84 29.7744 218.84 30.5211C218.84 31.0439 219.01 31.4826 219.35 31.8373C219.708 32.1733 220.142 32.4534 220.651 32.6774C221.179 32.8827 221.914 33.1254 222.857 33.4055C224.14 33.7789 225.186 34.1522 225.997 34.5256C226.808 34.899 227.506 35.459 228.09 36.2058C228.675 36.9525 228.967 37.9327 228.967 39.1461C228.967 40.1916 228.694 41.1624 228.147 42.0585C227.6 42.9546 226.799 43.6733 225.743 44.2147C224.687 44.7374 223.432 44.9988 221.98 44.9988Z" fill="#DA4E28"/>
<path d="M208.236 44.801L203.879 37.1841H202.013V44.801H198.052V25.2547H205.464C206.991 25.2547 208.292 25.5254 209.367 26.0668C210.442 26.5896 211.244 27.3083 211.772 28.2231C212.319 29.1192 212.592 30.1273 212.592 31.2474C212.592 32.5356 212.215 33.7024 211.461 34.7478C210.706 35.7746 209.584 36.484 208.094 36.8761L212.818 44.801H208.236ZM202.013 34.2438H205.322C206.397 34.2438 207.199 33.9917 207.727 33.4877C208.255 32.965 208.519 32.2462 208.519 31.3314C208.519 30.4353 208.255 29.7446 207.727 29.2592C207.199 28.7551 206.397 28.5031 205.322 28.5031H202.013V34.2438Z" fill="#DA4E28"/>
<path d="M187.966 28.4193V33.3198H194.614V36.4282H187.966V41.6088H195.462V44.8012H184.006V25.2269H195.462V28.4193H187.966Z" fill="#DA4E28"/>
<path d="M177.405 44.801L170.22 36.092V44.801H166.26V25.2547H170.22V34.0197L177.405 25.2547H182.186L174.039 34.9439L182.412 44.801H177.405Z" fill="#DA4E28"/>
<path d="M159.129 41.0767H151.265L149.964 44.8012H145.805L152.906 25.2269H157.516L164.617 44.8012H160.43L159.129 41.0767ZM158.054 37.9404L155.197 29.7634L152.34 37.9404H158.054Z" fill="#DA4E28"/>
<path d="M145.143 25.2547V28.4191H139.882V44.801H135.921V28.4191H130.66V25.2547H145.143Z" fill="#DA4E28"/>
<path d="M121.621 28.4193V33.3198H128.269V36.4282H121.621V41.6088H129.118V44.8012H117.661V25.2269H129.118V28.4193H121.621Z" fill="#DA4E28"/>
<path d="M110.733 44.801L106.376 37.1841H104.509V44.801H100.549V25.2547H107.961C109.488 25.2547 110.789 25.5254 111.864 26.0668C112.939 26.5896 113.741 27.3083 114.269 28.2231C114.816 29.1192 115.089 30.1273 115.089 31.2474C115.089 32.5356 114.712 33.7024 113.957 34.7478C113.203 35.7746 112.081 36.484 110.591 36.8761L115.315 44.801H110.733ZM104.509 34.2438H107.819C108.894 34.2438 109.696 33.9917 110.224 33.4877C110.752 32.965 111.016 32.2462 111.016 31.3314C111.016 30.4353 110.752 29.7446 110.224 29.2592C109.696 28.7551 108.894 28.5031 107.819 28.5031H104.509V34.2438Z" fill="#DA4E28"/>
<path d="M93.4173 41.0767H85.5534L84.2522 44.8012H80.0939L87.1941 25.2269H91.8049L98.9051 44.8012H94.7185L93.4173 41.0767ZM92.3424 37.9404L89.4853 29.7634L86.6283 37.9404H92.3424Z" fill="#DA4E28"/>
<path d="M59.6472 35.0015C59.6472 33.0786 60.081 31.3611 60.9484 29.8489C61.8348 28.318 63.0323 27.1326 64.541 26.2925C66.0685 25.4337 67.7752 25.0043 69.661 25.0043C71.8674 25.0043 73.8004 25.5644 75.4599 26.6845C77.1194 27.8046 78.2792 29.3542 78.9393 31.3331H74.385C73.9324 30.3996 73.2912 29.6995 72.4614 29.2328C71.6505 28.7661 70.7076 28.5327 69.6327 28.5327C68.4823 28.5327 67.4546 28.8034 66.5494 29.3448C65.663 29.8676 64.9653 30.6143 64.4561 31.5851C63.9658 32.5559 63.7206 33.6947 63.7206 35.0015C63.7206 36.2896 63.9658 37.4284 64.4561 38.4179C64.9653 39.3887 65.663 40.1447 66.5494 40.6861C67.4546 41.2089 68.4823 41.4702 69.6327 41.4702C70.7076 41.4702 71.6505 41.2369 72.4614 40.7701C73.2912 40.2848 73.9324 39.5753 74.385 38.6419H78.9393C78.2792 40.6395 77.1194 42.1983 75.4599 43.3184C73.8192 44.4199 71.8863 44.9706 69.661 44.9706C67.7752 44.9706 66.0685 44.5506 64.541 43.7105C63.0323 42.8517 61.8348 41.6663 60.9484 40.1541C60.081 38.6419 59.6472 36.9244 59.6472 35.0015Z" fill="#DA4E28"/>
<path d="M271.576 0.252674V3.41704H266.315V19.7989H262.355V3.41704H257.093V0.252674H271.576Z" fill="#DA4E28"/>
<path d="M255.252 0.252674V19.7989H251.291V11.482H242.833V19.7989H238.873V0.252674H242.833V8.2896H251.291V0.252674H255.252Z" fill="#DA4E28"/>
<path d="M231.919 6.13271C231.466 5.31128 230.844 4.68588 230.052 4.25649C229.26 3.82711 228.336 3.61242 227.28 3.61242C226.11 3.61242 225.073 3.87378 224.168 4.39651C223.263 4.91924 222.556 5.66599 222.047 6.63677C221.537 7.60755 221.283 8.72768 221.283 9.99716C221.283 11.304 221.537 12.4428 222.047 13.4136C222.575 14.3843 223.301 15.1311 224.225 15.6538C225.149 16.1765 226.224 16.4379 227.449 16.4379C228.958 16.4379 230.193 16.0459 231.155 15.2618C232.117 14.459 232.749 13.3482 233.05 11.9294H226.261V8.93303H236.954V12.3494C236.69 13.7123 236.124 14.9724 235.257 16.1299C234.389 17.2873 233.267 18.2208 231.891 18.9302C230.533 19.6209 229.005 19.9663 227.308 19.9663C225.403 19.9663 223.678 19.5463 222.131 18.7062C220.604 17.8474 219.397 16.6619 218.511 15.1498C217.643 13.6376 217.209 11.92 217.209 9.99716C217.209 8.07427 217.643 6.35674 218.511 4.84456C219.397 3.31372 220.604 2.12825 222.131 1.28815C223.678 0.429383 225.394 0 227.28 0C229.505 0 231.438 0.541396 233.079 1.62419C234.719 2.68831 235.851 4.19115 236.473 6.13271H231.919Z" fill="#DA4E28"/>
<path d="M215.269 0.252547V19.7988H211.308V0.252547H215.269Z" fill="#DA4E28"/>
<path d="M209.43 0.252547V3.41691H204.168V19.7988H200.208V3.41691H194.947V0.252547H209.43Z" fill="#DA4E28"/>
<path d="M177.898 0.252674C179.972 0.252674 181.792 0.654053 183.357 1.45681C184.941 2.25957 186.157 3.40771 187.006 4.90121C187.874 6.37605 188.307 8.09358 188.307 10.0538C188.307 12.014 187.874 13.7316 187.006 15.2064C186.157 16.6626 184.941 17.792 183.357 18.5948C181.792 19.3976 179.972 19.7989 177.898 19.7989H170.995V0.252674H177.898ZM177.756 16.4665C179.83 16.4665 181.433 15.9065 182.565 14.7864C183.696 13.6662 184.262 12.0887 184.262 10.0538C184.262 8.01891 183.696 6.43206 182.565 5.29326C181.433 4.13579 179.83 3.55706 177.756 3.55706H174.956V16.4665H177.756Z" fill="#DA4E28"/>
<path d="M168.092 19.799H164.132L155.165 6.38544V19.799H151.205V0.224724H155.165L164.132 13.6663V0.224724H168.092V19.799Z" fill="#DA4E28"/>
<path d="M144.073 16.0746H136.209L134.908 19.799H130.75L137.85 0.224724H142.461L149.561 19.799H145.374L144.073 16.0746ZM142.998 12.9382L140.141 4.76125L137.284 12.9382H142.998Z" fill="#DA4E28"/>
<path d="M123.332 19.799H119.372L110.405 6.38544V19.799H106.445V0.224724H110.405L119.372 13.6663V0.224724H123.332V19.799Z" fill="#DA4E28"/>
<path d="M96.36 3.41709V8.31766H103.008V11.426H96.36V16.6066H103.856V19.799H92.3997V0.224724H103.856V3.41709H96.36Z" fill="#DA4E28"/>
<path d="M82.3149 3.41709V8.31766H88.9624V11.426H82.3149V16.6066H89.811V19.799H78.3546V0.224724H89.811V3.41709H82.3149Z" fill="#DA4E28"/>
<path d="M71.7535 19.7989L64.5685 11.0899V19.7989H60.6083V0.252674H64.5685V9.01769L71.7535 0.252674H76.5341L68.3873 9.9418L76.7604 19.7989H71.7535Z" fill="#DA4E28"/>
<path d="M53.9773 44.9979C41.4254 44.9979 31.25 34.9247 31.25 22.4989C31.25 10.0731 41.4254 0 53.9773 0V44.9979Z" fill="#DA4E28"/>
<path d="M277.273 0.000505797C289.825 0.000506883 300 10.0736 300 22.4994C300 34.9253 289.825 44.9984 277.273 44.9984V0.000505797Z" fill="#DA4E28"/>
<path d="M53.9773 44.9979C41.4254 44.9979 31.25 34.9247 31.25 22.4989C31.25 10.0731 41.4254 0 53.9773 0V44.9979Z" fill="#DA4E28"/>
<path fill-rule="evenodd" clip-rule="evenodd" d="M36.9327 45C36.9325 45 36.9329 45 36.9327 45V0.00214023C36.9325 0.00214023 36.9329 0.00214023 36.9327 0.00214023V45ZM30.1139 43.9698V1.03234C20.8935 3.89948 14.2054 12.4271 14.2054 22.5011C14.2054 32.5751 20.8935 41.1027 30.1139 43.9698Z" fill="#DA4E28"/>
<path fill-rule="evenodd" clip-rule="evenodd" d="M0 22.4989C0 31.5057 5.34605 39.2763 13.0682 42.8707V2.12716C5.34605 5.72158 0 13.4922 0 22.4989Z" fill="#DA4E28"/>
</svg>
